<svg width="167" height="42" viewBox="0 0 167 42" fill="none" xmlns="http://www.w3.org/2000/svg">
<path d="M60.158 11.72V28H57.65V11.72H60.158ZM72.8008 21.642C72.8008 22.0967 72.7714 22.5073 72.7128 22.874H63.4508C63.5241 23.842 63.8834 24.6193 64.5288 25.206C65.1741 25.7927 65.9661 26.086 66.9048 26.086C68.2541 26.086 69.2074 25.5213 69.7648 24.392H72.4708C72.1041 25.5067 71.4368 26.4233 70.4688 27.142C69.5154 27.846 68.3274 28.198 66.9048 28.198C65.7461 28.198 64.7048 27.9413 63.7808 27.428C62.8714 26.9 62.1528 26.1667 61.6248 25.228C61.1114 24.2747 60.8548 23.1747 60.8548 21.928C60.8548 20.6813 61.1041 19.5887 61.6028 18.65C62.1161 17.6967 62.8274 16.9633 63.7368 16.45C64.6608 15.9367 65.7168 15.68 66.9048 15.68C68.0488 15.68 69.0681 15.9293 69.9628 16.428C70.8574 16.9267 71.5541 17.6307 72.0528 18.54C72.5514 19.4347 72.8008 20.4687 72.8008 21.642ZM70.1828 20.85C70.1681 19.926 69.8381 19.1853 69.1928 18.628C68.5474 18.0707 67.7481 17.792 66.7948 17.792C65.9294 17.792 65.1888 18.0707 64.5728 18.628C63.9568 19.1707 63.5901 19.9113 63.4728 20.85H70.1828ZM79.6249 15.68C80.5782 15.68 81.4289 15.878 82.1769 16.274C82.9396 16.67 83.5336 17.2567 83.9589 18.034C84.3842 18.8113 84.5969 19.75 84.5969 20.85V28H82.1109V21.224C82.1109 20.1387 81.8396 19.31 81.2969 18.738C80.7542 18.1513 80.0136 17.858 79.0749 17.858C78.1362 17.858 77.3882 18.1513 76.8309 18.738C76.2882 19.31 76.0169 20.1387 76.0169 21.224V28H73.5089V15.878H76.0169V17.264C76.4276 16.7653 76.9482 16.3767 77.5789 16.098C78.2242 15.8193 78.9062 15.68 79.6249 15.68ZM85.2 21.884C85.2 20.6667 85.4493 19.5887 85.948 18.65C86.4613 17.7113 87.1507 16.9853 88.016 16.472C88.896 15.944 89.8713 15.68 90.942 15.68C91.734 15.68 92.5113 15.856 93.274 16.208C94.0513 16.5453 94.6673 17 95.122 17.572V11.72H97.652V28H95.122V26.174C94.7113 26.7607 94.1393 27.2447 93.406 27.626C92.6873 28.0073 91.8587 28.198 90.92 28.198C89.864 28.198 88.896 27.934 88.016 27.406C87.1507 26.8633 86.4613 26.1153 85.948 25.162C85.4493 24.194 85.2 23.1013 85.2 21.884ZM95.122 21.928C95.122 21.092 94.946 20.366 94.594 19.75C94.2567 19.134 93.8093 18.6647 93.252 18.342C92.6947 18.0193 92.0933 17.858 91.448 17.858C90.8027 17.858 90.2013 18.0193 89.644 18.342C89.0867 18.65 88.632 19.112 88.28 19.728C87.9427 20.3293 87.774 21.048 87.774 21.884C87.774 22.72 87.9427 23.4533 88.28 24.084C88.632 24.7147 89.0867 25.1987 89.644 25.536C90.216 25.8587 90.8173 26.02 91.448 26.02C92.0933 26.02 92.6947 25.8587 93.252 25.536C93.8093 25.2133 94.2567 24.744 94.594 24.128C94.946 23.4973 95.122 22.764 95.122 21.928ZM100.462 14.272C100.008 14.272 99.6262 14.118 99.3182 13.81C99.0102 13.502 98.8562 13.1207 98.8562 12.666C98.8562 12.2113 99.0102 11.83 99.3182 11.522C99.6262 11.214 100.008 11.06 100.462 11.06C100.902 11.06 101.276 11.214 101.584 11.522C101.892 11.83 102.046 12.2113 102.046 12.666C102.046 13.1207 101.892 13.502 101.584 13.81C101.276 14.118 100.902 14.272 100.462 14.272ZM101.694 15.878V28H99.1862V15.878H101.694ZM109.343 15.68C110.296 15.68 111.147 15.878 111.895 16.274C112.658 16.67 113.252 17.2567 113.677 18.034C114.102 18.8113 114.315 19.75 114.315 20.85V28H111.829V21.224C111.829 20.1387 111.558 19.31 111.015 18.738C110.472 18.1513 109.732 17.858 108.793 17.858C107.854 17.858 107.106 18.1513 106.549 18.738C106.006 19.31 105.735 20.1387 105.735 21.224V28H103.227V15.878H105.735V17.264C106.146 16.7653 106.666 16.3767 107.297 16.098C107.942 15.8193 108.624 15.68 109.343 15.68ZM120.638 15.68C121.577 15.68 122.405 15.8707 123.124 16.252C123.857 16.6187 124.429 17.0807 124.84 17.638V15.878H127.37V28.198C127.37 29.3127 127.135 30.3027 126.666 31.168C126.197 32.048 125.515 32.7373 124.62 33.236C123.74 33.7347 122.684 33.984 121.452 33.984C119.809 33.984 118.445 33.5953 117.36 32.818C116.275 32.0553 115.659 31.014 115.512 29.694H117.998C118.189 30.3247 118.592 30.8307 119.208 31.212C119.839 31.608 120.587 31.806 121.452 31.806C122.464 31.806 123.278 31.498 123.894 30.882C124.525 30.266 124.84 29.3713 124.84 28.198V26.174C124.415 26.746 123.835 27.23 123.102 27.626C122.383 28.0073 121.562 28.198 120.638 28.198C119.582 28.198 118.614 27.934 117.734 27.406C116.869 26.8633 116.179 26.1153 115.666 25.162C115.167 24.194 114.918 23.1013 114.918 21.884C114.918 20.6667 115.167 19.5887 115.666 18.65C116.179 17.7113 116.869 16.9853 117.734 16.472C118.614 15.944 119.582 15.68 120.638 15.68ZM124.84 21.928C124.84 21.092 124.664 20.366 124.312 19.75C123.975 19.134 123.527 18.6647 122.97 18.342C122.413 18.0193 121.811 17.858 121.166 17.858C120.521 17.858 119.919 18.0193 119.362 18.342C118.805 18.65 118.35 19.112 117.998 19.728C117.661 20.3293 117.492 21.048 117.492 21.884C117.492 22.72 117.661 23.4533 117.998 24.084C118.35 24.7147 118.805 25.1987 119.362 25.536C119.934 25.8587 120.535 26.02 121.166 26.02C121.811 26.02 122.413 25.8587 122.97 25.536C123.527 25.2133 123.975 24.744 124.312 24.128C124.664 23.4973 124.84 22.764 124.84 21.928ZM139.129 15.68C140.053 15.68 140.874 15.878 141.593 16.274C142.326 16.67 142.898 17.2567 143.309 18.034C143.734 18.8113 143.947 19.75 143.947 20.85V28H141.461V21.224C141.461 20.1387 141.19 19.31 140.647 18.738C140.104 18.1513 139.364 17.858 138.425 17.858C137.486 17.858 136.738 18.1513 136.181 18.738C135.638 19.31 135.367 20.1387 135.367 21.224V28H132.859V11.72H135.367V17.286C135.792 16.7727 136.328 16.3767 136.973 16.098C137.633 15.8193 138.352 15.68 139.129 15.68ZM144.55 21.884C144.55 20.6667 144.8 19.5887 145.298 18.65C145.812 17.7113 146.501 16.9853 147.366 16.472C148.246 15.944 149.214 15.68 150.27 15.68C151.224 15.68 152.052 15.8707 152.756 16.252C153.475 16.6187 154.047 17.0807 154.472 17.638V15.878H157.002V28H154.472V26.196C154.047 26.768 153.468 27.2447 152.734 27.626C152.001 28.0073 151.165 28.198 150.226 28.198C149.185 28.198 148.232 27.934 147.366 27.406C146.501 26.8633 145.812 26.1153 145.298 25.162C144.8 24.194 144.55 23.1013 144.55 21.884ZM154.472 21.928C154.472 21.092 154.296 20.366 153.944 19.75C153.607 19.134 153.16 18.6647 152.602 18.342C152.045 18.0193 151.444 17.858 150.798 17.858C150.153 17.858 149.552 18.0193 148.994 18.342C148.437 18.65 147.982 19.112 147.63 19.728C147.293 20.3293 147.124 21.048 147.124 21.884C147.124 22.72 147.293 23.4533 147.63 24.084C147.982 24.7147 148.437 25.1987 148.994 25.536C149.566 25.8587 150.168 26.02 150.798 26.02C151.444 26.02 152.045 25.8587 152.602 25.536C153.16 25.2133 153.607 24.744 153.944 24.128C154.296 23.4973 154.472 22.764 154.472 21.928ZM161.462 17.924V24.634C161.462 25.0887 161.565 25.4187 161.77 25.624C161.99 25.8147 162.357 25.91 162.87 25.91H164.41V28H162.43C161.301 28 160.436 27.736 159.834 27.208C159.233 26.68 158.932 25.822 158.932 24.634V17.924H157.502V15.878H158.932V12.864H161.462V15.878H164.41V17.924H161.462Z" fill="white"/>
<path d="M21.3275 0C22.43 0 23.3258 0.895816 23.3258 1.99836V8.88925C23.3258 9.9918 22.43 10.8876 21.3275 10.8876C20.2249 10.8876 19.3291 9.9918 19.3291 8.88925V1.99836C19.3291 0.895816 20.2249 0 21.3275 0Z" fill="white"/>
<path d="M12.0243 3.82422C12.5412 2.85949 13.7815 2.48049 14.7462 2.99731L22.2918 7.09739C23.2565 7.61421 23.6355 8.82012 23.1187 9.8193C22.6019 10.784 21.3615 11.163 20.3968 10.6462L12.8168 6.54612C11.8521 6.0293 11.4731 4.8234 12.0243 3.82422Z" fill="white"/>
<path d="M20.6732 42.0009C19.5706 42.0009 18.6748 41.1051 18.6748 40.0025V33.1116C18.6748 32.0091 19.5706 31.1133 20.6732 31.1133C21.7757 31.1133 22.6715 32.0091 22.6715 33.1116V40.0025C22.6715 41.1051 21.7757 42.0009 20.6732 42.0009Z" fill="white"/>
<path d="M29.9754 38.1416C29.4586 39.1063 28.2183 39.4853 27.2535 38.9685L19.708 34.8684C18.7433 34.3516 18.3643 33.1112 18.8811 32.1465C19.3979 31.1818 20.6383 30.8028 21.603 31.3196L29.1485 35.4197C30.1477 35.9709 30.4923 37.1768 29.9754 38.1416Z" fill="white"/>
<path d="M0 20.6732C0 19.5706 0.895816 18.6748 1.99836 18.6748H8.88925C9.9918 18.6748 10.8876 19.5706 10.8876 20.6732C10.8876 21.7757 9.9918 22.6715 8.88925 22.6715H1.99836C0.895816 22.6715 0 21.7757 0 20.6732Z" fill="white"/>
<path d="M3.82422 29.9754C2.85949 29.4586 2.48049 28.2183 2.99731 27.2535L7.09739 19.708C7.61421 18.7433 8.85457 18.3643 9.8193 18.8811C10.784 19.3979 11.163 20.6383 10.6462 21.603L6.54612 29.183C6.0293 30.1477 4.8234 30.4923 3.82422 29.9754Z" fill="white"/>
<path d="M42.0009 21.3265C42.0009 22.429 41.1051 23.3248 40.0025 23.3248H33.1116C32.0091 23.3248 31.1133 22.429 31.1133 21.3265C31.1133 20.2239 32.0091 19.3281 33.1116 19.3281H40.0025C41.1051 19.3281 42.0009 20.2239 42.0009 21.3265Z" fill="white"/>
<path d="M38.1416 12.0242C39.1063 12.5411 39.4853 13.7814 38.9685 14.7462L34.8684 22.2917C34.3516 23.2564 33.1457 23.6354 32.1465 23.1186C31.1818 22.6018 30.8028 21.3614 31.3196 20.3967L35.4197 12.8512C35.9709 11.852 37.1768 11.473 38.1416 12.0242Z" fill="white"/>
<path d="M6.37461 5.92637C7.16707 5.13392 8.40743 5.13392 9.19988 5.92637L14.058 10.7845C14.8504 11.5769 14.8504 12.8173 14.058 13.6097C13.2655 14.4022 12.0251 14.4022 11.2327 13.6097L6.37461 8.75164C5.58216 7.95918 5.58216 6.71882 6.37461 5.92637Z" fill="white"/>
<path d="M2.5154 15.2292C2.20531 14.1611 2.79104 13.0586 3.85913 12.7485L12.0937 10.3367C13.1618 10.0266 14.2644 10.6123 14.5745 11.6804C14.8846 12.7485 14.2988 13.851 13.2307 14.1611L4.99613 16.573C3.92804 16.883 2.8255 16.2629 2.5154 15.2292Z" fill="white"/>
<path d="M35.6266 36.0739C34.8341 36.8663 33.5938 36.8663 32.8013 36.0739L27.9088 31.1813C27.1163 30.3889 27.1163 29.1485 27.9088 28.3561C28.7012 27.5636 29.9761 27.5636 30.7341 28.3561L35.5921 33.2141C36.3846 34.0066 36.3846 35.2814 35.6266 36.0739Z" fill="white"/>
<path d="M39.4856 26.7712C39.7957 27.8393 39.21 28.9419 38.1419 29.252L29.9073 31.6638C28.8392 31.9739 27.7366 31.3881 27.4265 30.32C27.1164 29.252 27.7022 28.1494 28.7703 27.8393L37.0049 25.4275C38.0385 25.1174 39.1755 25.7031 39.4856 26.7712Z" fill="white"/>
<path d="M5.92637 35.6266C5.13392 34.8341 5.13392 33.5593 5.92637 32.8013L10.7845 27.9088C11.5769 27.1163 12.8173 27.1163 13.6097 27.9088C14.4022 28.7012 14.4022 29.9761 13.6097 30.7341L8.75164 35.5921C7.95918 36.3846 6.71882 36.3846 5.92637 35.6266Z" fill="white"/>
<path d="M15.2292 39.4856C14.1611 39.7957 13.0586 39.21 12.7485 38.1419L10.3367 29.9073C10.0266 28.8392 10.6123 27.7366 11.6804 27.4265C12.7485 27.1164 13.851 27.7022 14.1611 28.7703L16.573 37.0049C16.883 38.0385 16.2629 39.1755 15.2292 39.4856Z" fill="white"/>
<path d="M36.0739 6.37428C36.8663 7.16673 36.8663 8.44155 36.0739 9.19955L31.1813 14.0921C30.3889 14.8845 29.1485 14.8845 28.3561 14.0921C27.5636 13.2996 27.5636 12.0248 28.3561 11.2668L33.2141 6.40874C34.0066 5.58183 35.2814 5.58183 36.0739 6.37428Z" fill="white"/>
<path d="M26.7712 2.5154C27.8393 2.20531 28.9419 2.79104 29.252 3.85913L31.6638 12.0937C31.9739 13.1618 31.3881 14.2644 30.32 14.5745C29.252 14.8846 28.1494 14.2988 27.8393 13.2307L25.4275 4.99613C25.1174 3.92804 25.7031 2.8255 26.7712 2.5154Z" fill="white"/>
</svg>
